<svg width="200" height="70" viewBox="0 0 132 77" fill="none" xmlns="http://www.w3.org/2000/svg">
<path d="M43.7208 66.2426C44.8098 67.3701 45.4187 68.8763 45.4192 70.4438C45.4197 72.0113 44.8118 73.5179 43.7234 74.646C42.6351 75.7742 41.1513 76.4359 39.5848 76.4916C38.0182 76.5474 36.4912 75.993 35.3253 74.9451L2.48568 43.2642C1.33257 42.1504 0.668707 40.6244 0.63992 39.0215C0.611133 37.4185 1.21977 35.8697 2.33215 34.7152L34.0131 1.87559C35.1405 0.786542 36.6467 0.177621 38.2142 0.177127C39.7818 0.176634 41.2883 0.784606 42.4165 1.87295C43.5446 2.96129 44.2063 4.44504 44.2621 6.01159C44.3179 7.57815 43.7634 9.1052 42.7156 10.271L21.1725 32.602L65.0465 31.8141C80.7492 31.5321 91.7951 29.3571 100.151 25.2136C108.356 21.1453 114.489 14.928 119.886 5.52899C120.283 4.84011 120.811 4.23607 121.441 3.75139C122.071 3.26671 122.791 2.91087 123.558 2.70418C124.326 2.49749 125.127 2.444 125.915 2.54676C126.703 2.64953 127.463 2.90654 128.152 3.30312C128.841 3.6997 129.445 4.22809 129.93 4.85811C130.414 5.48813 130.77 6.20744 130.977 6.97498C131.184 7.74252 131.237 8.54326 131.134 9.33147C131.032 10.1197 130.775 10.8799 130.378 11.5688C124.057 22.5495 116.321 30.6996 105.534 36.0567C94.8984 41.3303 81.8214 43.6143 65.2638 43.9117L21.3898 44.6996L43.7208 66.2426Z" fill="rgb(47, 157, 254)"/>
</svg>
